<svg width="25" height="24" viewBox="0 0 25 24" fill="none" xmlns="http://www.w3.org/2000/svg">
<g clip-path="url(#clip0_2722_7871)">
<path d="M24.2663 12.2764C24.2663 11.4607 24.2001 10.6406 24.059 9.83807H12.7402V14.4591H19.222C18.953 15.9494 18.0888 17.2678 16.8233 18.1056V21.1039H20.6903C22.9611 19.0139 24.2663 15.9274 24.2663 12.2764Z" fill="#4285F4"/>
<path d="M12.7396 24.0009C15.9761 24.0009 18.7054 22.9382 20.6941 21.104L16.8271 18.1056C15.7512 18.8376 14.3622 19.252 12.744 19.252C9.6134 19.252 6.95898 17.14 6.00656 14.3004H2.01611V17.3913C4.05323 21.4435 8.20241 24.0009 12.7396 24.0009Z" fill="#34A853"/>
<path d="M6.00277 14.3003C5.50011 12.81 5.50011 11.1962 6.00277 9.70581V6.61487H2.01674C0.314734 10.0056 0.314734 14.0005 2.01674 17.3913L6.00277 14.3003Z" fill="#FBBC04"/>
<path d="M12.7396 4.74966C14.4504 4.7232 16.1039 5.36697 17.343 6.54867L20.769 3.12262C18.5996 1.0855 15.7203 -0.034466 12.7396 0.000808666C8.20241 0.000808666 4.05323 2.55822 2.01611 6.61481L6.00215 9.70575C6.95016 6.86173 9.60898 4.74966 12.7396 4.74966Z" fill="#EA4335"/>
</g>
<defs>
<clipPath id="clip0_2722_7871">
<rect width="24" height="24" fill="white" transform="translate(0.5)"/>
</clipPath>
</defs>
</svg>
